<svg width="30" height="30" viewBox="0 0 30 30" fill="none" xmlns="http://www.w3.org/2000/svg">
<g id="icon_tiktok">
<rect id="bg" width="30" height="30" rx="15" fill="#192140"/>
<path id="icon" d="M23 12.7916C21.4272 12.7955 19.893 12.2859 18.6141 11.3347V17.9686C18.6137 19.1972 18.2522 20.3965 17.5781 21.4059C16.904 22.4154 15.9493 23.187 14.8418 23.6175C13.7342 24.048 12.5266 24.1169 11.3803 23.8151C10.234 23.5132 9.20377 22.8549 8.4273 21.9282C7.65082 21.0015 7.16513 19.8506 7.03518 18.6294C6.90522 17.4082 7.13719 16.1749 7.70007 15.0943C8.26295 14.0138 9.12991 13.1375 10.185 12.5828C11.2401 12.028 12.4331 11.8211 13.6044 11.9898V15.3264C13.0684 15.1513 12.4929 15.1565 11.9599 15.3415C11.427 15.5265 10.9639 15.8817 10.6369 16.3564C10.3098 16.8312 10.1355 17.4011 10.1388 17.9849C10.1421 18.5687 10.3229 19.1365 10.6553 19.6072C10.9877 20.0779 11.4548 20.4274 11.9898 20.6059C12.5248 20.7843 13.1003 20.7825 13.6343 20.6008C14.1683 20.4191 14.6333 20.0667 14.9631 19.594C15.2928 19.1213 15.4703 18.5524 15.4703 17.9686V5H18.6141C18.6119 5.27584 18.6341 5.55131 18.6805 5.82292C18.7898 6.42925 19.0169 7.00605 19.3481 7.51804C19.6792 8.03003 20.1074 8.46644 20.6064 8.80059C21.3164 9.28837 22.1488 9.54835 23 9.54816V12.7916Z" fill="white"/>
</g>
</svg>
